<?xml version="1.0" encoding="UTF-8" standalone="no"?>
<svg
   version="1.1"
   width="600"
   height="600"
   id="svg24"
   sodipodi:docname="firefox.svg"
   inkscape:version="1.2.2 (b0a8486541, 2022-12-01)"
   xmlns:inkscape="http://www.inkscape.org/namespaces/inkscape"
   xmlns:sodipodi="http://sodipodi.sourceforge.net/DTD/sodipodi-0.dtd"
   xmlns="http://www.w3.org/2000/svg"
   xmlns:svg="http://www.w3.org/2000/svg">
  <defs
     id="defs28" />
  <sodipodi:namedview
     id="namedview26"
     pagecolor="#ffffff"
     bordercolor="#000000"
     borderopacity="0.25"
     inkscape:showpageshadow="2"
     inkscape:pageopacity="0.0"
     inkscape:pagecheckerboard="0"
     inkscape:deskcolor="#d1d1d1"
     showgrid="false"
     inkscape:zoom="1.3312"
     inkscape:cx="105.16827"
     inkscape:cy="427.43389"
     inkscape:window-width="1920"
     inkscape:window-height="1002"
     inkscape:window-x="0"
     inkscape:window-y="0"
     inkscape:window-maximized="1"
     inkscape:current-layer="svg24" />
  <g
     id="g510"
     transform="translate(-1518.483,-1370.9971)">
    <path
       d="m 2042.9142,1655.8 c 16.1095,24.6546 15.0649,56.2649 16.1868,84.8052 -0.211,32.6921 0.1,65.7971 -3.2578,98.2065 -20.2824,58.1493 -65.3133,107.4026 -121.729,132.1883 16.2292,-21.282 30.9147,-44.1616 39.7333,-69.6 -34.7753,32.058 -78.7493,53.5813 -125.501,60.9941 -38.5978,9.2789 -79.9459,6.553 -117.4323,-5.7939 23.5793,-1.7067 48.4643,-5.2234 69.8666,-14.1328 -43.544,7.1501 -88.6406,-3.9005 -127.0945,-24.4236 -36.519,-21.9095 -68.2421,-55.1035 -79.3337,-97.1733 -6.8416,-23.0639 -13.3087,-46.5435 -16.5582,-70.3445 1.4835,-13.9007 -0.7289,-32.8731 7.4357,-43.0638 38.4642,-9.4982 79.2378,-7.9578 116.827,4.5965 41.8296,12.2988 82.1166,29.8833 118.724,53.6091 -22.936,-23.3554 -50.8573,-41.193 -79.4665,-56.5334 47.2242,-1.9612 94.1693,4.8571 141.0751,8.821 43.7953,2.206 86.2981,-13.7037 123.8799,-34.8458 12.9518,-8.0665 25.0111,-17.4927 36.6446,-27.3096 z"
       fill="#ea5805"
       id="path4"
       style="stroke-width:0.266667" />
    <path
       d="m 1853.5808,1371 c -8.6022,36.2084 -9.6246,75.5398 0.4845,110.9973 43.5371,5.6932 82.8363,33.9668 103.5053,72.5018 14.543,17.1585 37.376,31.6002 60.6464,24.8621 24.0931,-2.4434 32.982,32.3322 12.7908,43.5791 -40.804,41.0882 -95.2583,70.1005 -153.781,73.0622 -50.0515,3.1904 -100.0885,-4.0953 -149.4129,-11.7717 -45.9074,-11.3384 -94.0831,-7.9184 -140.0993,0.8967 17.5542,-59.3751 59.0479,-112.2135 113.6,-141.6 2.7453,15.9134 5.18,33.1825 9.8666,48 13.5734,-88.8596 67.0527,-171.6799 142.3996,-220.5275 z"
       fill="#ea5805"
       id="path6"
       style="stroke-width:0.266667" />
    <path
       d="m 1614.6996,1729.6313 c 0.4282,-2e-4 0.8565,0 1.2847,0 0.8915,0 1.7829,10e-5 2.6744,0 1.1241,0 2.2482,0 3.3723,0 4.6548,-0.01 9.303,-0.01 13.9498,0.3024 0.1885,0.012 0.3769,0.025 0.5711,0.038 1.2222,0.084 2.4422,0.1858 3.6623,0.2957 0.185,0.016 0.37,0.033 0.5607,0.05 17.0354,1.5311 34.2155,4.5087 50.6341,9.3532 1.2895,0.3785 2.5872,0.722 3.8869,1.0637 3.7397,0.9855 7.4143,2.1171 11.0849,3.3332 0.3633,0.1199 0.7267,0.2398 1.09,0.3596 2.8398,0.9374 5.6758,1.8861 8.51,2.8404 0.1919,0.064 0.3837,0.129 0.5814,0.1955 5.0091,1.6846 9.9711,3.4566 14.8853,5.4045 0.314,0.1241 0.6279,0.2481 0.9514,0.3759 13.3874,5.2966 26.568,11.0282 39.511,17.3349 1.085,0.5264 2.1738,1.0448 3.2631,1.5624 4.857,2.3083 9.6635,4.7123 14.4112,7.2379 0.7809,0.4139 1.563,0.8255 2.3455,1.2365 4.1558,2.1832 8.2883,4.3913 12.3636,6.7222 1.0792,0.6161 2.1694,1.2053 3.2709,1.7802 2.0073,1.0581 3.9588,2.2062 5.9152,3.3553 1.8289,1.073 3.6685,2.1244 5.5181,3.1614 5.3043,2.9816 10.5092,6.1335 15.6993,9.3086 0.762,0.4649 1.5254,0.9274 2.2892,1.3893 3.2846,1.9876 6.5349,4.0227 9.768,6.0928 0.8752,0.5586 1.7537,1.1119 2.6326,1.6645 2.8394,1.786 5.6548,3.607 8.4609,5.4448 0.263,0.1721 0.263,0.1721 0.5313,0.3477 4.6735,3.0582 9.342,6.1235 13.9687,9.2523 0.1611,0.1085 0.3222,0.2171 0.4882,0.3289 0.4456,0.3005 0.8902,0.6024 1.3347,0.9044 0.2483,0.1685 0.4966,0.3369 0.7525,0.5104 0.1731,0.1286 0.3462,0.2571 0.5246,0.3896 0,0.088 0,0.176 0,0.2667 -0.892,0.1997 -1.7168,0.3004 -2.6302,0.3023 -0.2542,0 -0.5084,0 -0.7703,0 -0.414,-2e-4 -0.414,-2e-4 -0.8364,0 -0.4402,0 -0.4402,0 -0.8892,0 -0.9743,0 -1.9486,0 -2.9229,0 -0.6853,0 -1.3706,0 -2.0558,0 -1.4435,0 -2.887,0 -4.3304,0 -1.4608,-2e-4 -2.9216,0 -4.3823,0.01 -8.1449,0.021 -16.2556,-0.018 -24.3825,-0.5883 -0.5712,-0.037 -1.1423,-0.073 -1.7135,-0.1094 -1.4522,-0.095 -2.9028,-0.2049 -4.3532,-0.3239 -0.2596,-0.021 -0.5192,-0.042 -0.7867,-0.064 -13.7925,-1.14 -27.5637,-2.9888 -41.1466,-5.6361 -0.184,-0.036 -0.368,-0.072 -0.5576,-0.1085 -6.7048,-1.308 -13.3854,-2.7036 -20.0257,-4.3082 -0.2042,-0.049 -0.4083,-0.098 -0.6186,-0.1485 -2.3806,-0.5732 -4.7373,-1.1968 -7.0831,-1.8992 -1.507,-0.4509 -3.0226,-0.8527 -4.5483,-1.2356 -2.4126,-0.6166 -4.7959,-1.3062 -7.1731,-2.0472 -1.6773,-0.5224 -3.3626,-1.001 -5.0603,-1.4528 1.7275,1.613 3.4686,3.187 5.3115,4.6688 0.6169,0.4989 1.2277,1.0025 1.8354,1.5125 2.779,2.3262 5.6444,4.5032 8.5865,6.6187 0.191,0.1382 0.3821,0.2763 0.579,0.4186 4.712,3.401 9.5989,6.526 14.621,9.4481 0.2433,0.1418 0.4866,0.2836 0.7373,0.4297 9.3774,5.4317 19.1933,10.0429 29.396,13.7036 0.294,0.1058 0.5881,0.2116 0.891,0.3206 3.965,1.4177 7.9358,2.704 12.0125,3.7609 1.1992,0.3188 2.3887,0.671 3.5798,1.0185 2.3988,0.695 4.8127,1.2903 7.25,1.8333 -0.9563,0.6376 -1.8685,0.8032 -2.975,1.024 -0.2177,0.045 -0.4354,0.089 -0.6596,0.1355 -0.4635,0.095 -0.927,0.1886 -1.3908,0.2816 -0.6909,0.1389 -1.3812,0.2807 -2.0715,0.423 -2.6424,0.5397 -5.288,1.0056 -7.9539,1.4126 -1.1575,0.1778 -2.3094,0.381 -3.4617,0.59 -2.5538,0.4591 -5.1187,0.8351 -7.6875,1.2 -0.2453,0.035 -0.4906,0.07 -0.7433,0.1057 -12.041,1.7028 -24.2444,2.6106 -36.4077,2.5964 -0.559,2e-4 -1.118,0 -1.677,0 -1.1628,3e-4 -2.3257,-2e-4 -3.4885,0 -1.4659,0 -2.9317,0 -4.3976,0 -6.1004,0.01 -12.1913,-0.011 -18.2859,-0.3023 1.0234,1.0301 2.0478,2.0592 3.0729,3.0875 0.3478,0.3492 0.6954,0.6986 1.0427,1.0482 1.7807,1.7923 3.5539,3.5651 5.4844,5.1976 0.4735,0.4319 0.9459,0.8651 1.4167,1.3 1.1823,1.0771 2.3915,2.1067 3.6364,3.1104 0.593,0.4784 1.1821,0.9599 1.7688,1.4458 5.4959,4.5371 11.3202,8.7786 17.4185,12.4714 0.6024,0.365 1.2028,0.7333 1.8034,1.1016 3.0092,1.8349 6.0709,3.5591 9.1789,5.2208 0.5658,0.3033 1.1302,0.6092 1.6937,0.9167 2.422,1.3163 4.8867,2.5027 7.4003,3.6333 0.1913,0.087 0.3825,0.1729 0.5796,0.262 6.0679,2.7414 12.2511,4.9871 18.5704,7.0713 -1.2433,0.8289 -2.6167,0.8242 -4.0814,1 -0.5264,0.064 -1.0522,0.1317 -1.578,0.2 -6.4971,0.8204 -13.0015,1.0229 -19.5411,1.0029 -0.9993,0 -1.9985,0 -2.9978,0 -6.7125,0.017 -13.3717,-0.2678 -20.0315,-1.1707 -0.6316,-0.086 -1.2636,-0.1676 -1.8957,-0.2491 -2.1214,-0.2772 -4.2357,-0.5874 -6.3464,-0.937 -0.195,-0.032 -0.3901,-0.065 -0.5911,-0.098 -1.4051,-0.238 -2.7895,-0.5346 -4.1745,-0.8688 -0.8339,-0.1997 -1.6693,-0.3864 -2.507,-0.5691 -5.3987,-1.1806 -10.7246,-2.4899 -15.9888,-4.1788 -0.1992,-0.063 -0.3983,-0.1262 -0.6034,-0.1911 -1.4069,-0.4472 -2.8034,-0.9211 -4.1966,-1.4089 -0.2827,-0.099 -0.5654,-0.1977 -0.8567,-0.2996 -10.1163,-3.5649 -19.9652,-7.9642 -29.2767,-13.3004 -0.2789,-0.1597 -0.5577,-0.3194 -0.845,-0.484 -4.3666,-2.5153 -8.6023,-5.1946 -12.755,-8.0493 -0.2109,-0.1443 -0.4218,-0.2886 -0.639,-0.4373 -2.7915,-1.9156 -5.4746,-3.9551 -8.1312,-6.0528 -0.5318,-0.4186 -1.0661,-0.8337 -1.6016,-1.2474 -1.6463,-1.2747 -3.2388,-2.5783 -4.773,-3.9886 -0.5161,-0.474 -1.0402,-0.9341 -1.5718,-1.3906 -2.747,-2.4029 -5.3661,-4.9406 -7.95,-7.5167 -0.2231,-0.2217 -0.4461,-0.4435 -0.6758,-0.672 -1.1458,-1.1487 -2.2506,-2.3164 -3.3084,-3.5467 -0.5993,-0.6936 -1.2244,-1.3605 -1.8492,-2.0313 -1.1446,-1.239 -2.2289,-2.5142 -3.2864,-3.8291 -0.5438,-0.6684 -1.0999,-1.3238 -1.6624,-1.9763 -1.8004,-2.0941 -3.4519,-4.285 -5.0845,-6.5112 -0.2031,-0.2746 -0.2031,-0.2746 -0.4102,-0.5548 -10.7201,-14.5111 -19.6275,-30.669 -25.4565,-47.7786 -0.057,-0.1665 -0.114,-0.333 -0.1727,-0.5046 -1.4327,-4.1854 -2.7757,-8.3842 -3.9213,-12.6576 -0.1776,-0.6562 -0.3614,-1.3104 -0.5456,-1.9648 -1.2634,-4.5724 -2.1362,-9.2159 -2.9954,-13.8774 -0.1354,-0.7284 -0.2762,-1.4556 -0.416,-2.1831 -0.9594,-5.1727 -1.3791,-10.4405 -1.8156,-15.6791 -0.029,-0.3489 -0.059,-0.6978 -0.089,-1.0573 -0.2343,-3.2016 -0.2079,-6.4011 -0.1947,-9.6094 0,-0.5715 0,-1.143 0,-1.7146 0,-1.384 0.01,-2.768 0.013,-4.1521 0.711,-0.085 1.4221,-0.1678 2.1334,-0.25 0.1931,-0.023 0.3863,-0.046 0.5854,-0.07 3.6415,-0.4167 7.2726,-0.5207 10.9333,-0.5151 z"
       fill="#fdfdfd"
       id="path8"
       style="display:none;stroke-width:0.266667" />
    <path
       d="m 1844.9142,1521.0333 c 8.4642,-0.087 16.8151,2.7096 24.0386,7.0111 7.1809,4.4386 12.4629,11.4506 16.2049,18.9081 1.6047,2.9946 0.4673,7.2878 5.1984,6.6492 5.7025,2.3797 7.5986,4.4757 15.4424,12.255 1.1071,1.5914 2.4394,3.6505 -0.4445,2.4148 -12.2886,-2.4676 -14.8538,-4.0714 -25.8045,-1.0067 -4.6785,1.2534 -9.3415,2.9083 -14.2748,2.7533 -11.2264,0.6754 -22.5986,-3.0275 -31.1999,-10.2885 -8.7097,-6.8259 -14.4527,-17.0869 -16.0818,-27.9978 1.1666,-4.0756 6.907,-5.2283 10.3292,-7.3327 5.2319,-2.2188 10.9209,-3.3565 16.592,-3.3658 z"
       fill="#fdfdfd"
       id="path10"
       style="fill:#333333;stroke-width:0.266667"
       sodipodi:nodetypes="cccccccccccc" />
  </g>
</svg>
