<?xml version="1.0" encoding="UTF-8" standalone="no"?>
<svg
   version="1.1"
   width="300"
   height="300"
   id="svg218"
   sodipodi:docname="robot.svg"
   inkscape:version="1.2.2 (b0a8486541, 2022-12-01)"
   xmlns:inkscape="http://www.inkscape.org/namespaces/inkscape"
   xmlns:sodipodi="http://sodipodi.sourceforge.net/DTD/sodipodi-0.dtd"
   xmlns="http://www.w3.org/2000/svg"
   xmlns:svg="http://www.w3.org/2000/svg">
  <defs
     id="defs222" />
  <sodipodi:namedview
     id="namedview220"
     pagecolor="#ffffff"
     bordercolor="#000000"
     borderopacity="0.25"
     inkscape:showpageshadow="2"
     inkscape:pageopacity="0.0"
     inkscape:pagecheckerboard="0"
     inkscape:deskcolor="#d1d1d1"
     showgrid="false"
     inkscape:zoom="0.94698795"
     inkscape:cx="120.38168"
     inkscape:cy="202.74809"
     inkscape:window-width="1920"
     inkscape:window-height="1012"
     inkscape:window-x="0"
     inkscape:window-y="0"
     inkscape:window-maximized="1"
     inkscape:current-layer="svg218" />
  <g
     id="g641"
     inkscape:label="g01"
     transform="matrix(0.54782269,0,0,0.69530847,-14.738278,5.7459275)">
    <path
       d="M 124.25391,33.402344 C 130.9315,38.58476 134.37104,46.113124 137,54 c -0.0782,1.84972 -0.15953,3.699463 -0.26879,5.547608 -0.44148,8.173413 -0.44148,8.173413 3.45629,15.139892 L 168,102 c 4.38274,-1.33844 8.21617,-3.086931 12.25,-5.25 34.72388,-17.819937 77.39963,-18.478299 115.59253,-18.271484 4.24236,0.02277 8.48371,0.0092 12.72603,-0.01377 C 347.3763,78.287179 396.41298,78.145216 429.75,100.875 L 432,102 c 2.84978,-1.11668 4.95923,-2.663364 7.20801,-4.711177 8.93382,-10.787133 22.32662,-19.960236 27.6416,-31.831299 0.072,-2.921165 -0.16043,-5.720079 -0.52636,-8.615479 -0.55827,-6.635559 1.73221,-12.531622 5.67675,-17.842041 5.98465,-6.720349 13.14592,-10.42191 22.125,-11.308594 15.52508,0.309854 27.13453,8.405885 32.10427,19.390194 4.88207,10.790561 3.3566,24.368408 -7.1589,36.090275 -4.34275,3.834724 -9.62266,6.01224 -15.07032,7.828125 -1.93457,-0.134202 -3.86906,-0.270095 -5.80249,-0.419922 -7.65442,-0.485553 -7.65442,-0.485553 -14.47094,2.642578 l -25.16407,24.71484 c -1.81997,1.99741 -1.81997,1.99741 -1.6875,4.8125 1.03572,2.99208 1.74704,4.16081 3.6875,6.5 11.61352,14.80373 16.66444,36.20808 15.4375,54.75 l 3.83985,-0.14063 c 18.80052,-0.48871 18.80052,-0.48871 24.16015,4.14063 3.65544,4.58646 4.58315,8.10678 4.51758,13.83789 l 0.0241,65.46879 c -0.0997,5.87203 -2.25427,9.43969 -6.37024,13.4941 -6.87481,3.79598 -16.46802,3.35027 -24.17188,3.19922 -1.79824,1.79824 -1.37689,4.31284 -1.59521,6.72656 -0.75188,19.38211 -9.04799,35.49523 -15.65869,46.94531 -11.23168,19.45383 -41.70374,36.57016 -59.4336,41.51563 -8.78632,2.25322 -16.3007,3.95459 -24.2644,5.60815 -10.08454,1.96236 -20.2635,2.35432 -30.51367,2.34961 -26.83975,0.069 -53.25474,0.0195 -79.17666,0.0965 -33.36798,0.0971 -75.53336,-2.79711 -102.35777,-25.24202 0,0 -7.12779,-5.16566 -10.42968,-8.32422 C 141.02638,340.58619 130.62882,323.40168 127.92969,304.50781 126.95313,297.69142 125.88031,290.25183 125,284 c -11.65156,-0.33617 -21.87823,-0.43489 -28.999996,-6.99995 -2.133853,-4.10965 -2.302022,-7.97147 -2.306397,-12.50904 l -0.28337,-54.53786 c -0.181308,-15.76704 -0.181308,-15.76704 4.155561,-21.62238 5.401442,-5.01165 12.499052,-4.72596 19.434222,-4.51822 l 2.63672,0.041 c 2.12136,0.035 4.24241,0.0888 6.36328,0.14649 l -0.0625,-3.42188 c 0.0322,-18.33981 4.973,-38.11793 16.61719,-52.60546 1.62306,-2.21527 2.52227,-4.39621 3.44531,-6.97266 L 144.42579,119.42578 116,91 C 112.26528,90.745862 108.70172,90.81369 104.97119,90.98608 96.865037,91.271392 89.881038,89.423669 83.679691,83.953121 77.520589,78.983826 74.028149,74.74403 72.924498,68.628071 72.064206,63.8607 72.655379,57.953343 74.56641,49.671871 c 1.352158,-4.08909 3.449317,-8.146779 6.40573,-11.668355 3.252161,-3.87386 7.544088,-7.09898 13.027864,-9.00352 10.691046,-2.533505 20.869236,-1.436639 30.253906,4.402348 z"
       fill="#30b2b4"
       id="path2"
       sodipodi:nodetypes="cccccccccccccccsccccccccccccccccccccccccccccccccccccccscscc" />
    <path
       d="m 246.9375,144.5625 c 17.26439,-4.63093 21.23941,13.6694 24.68329,25.75869 11.79251,9.94772 30.53844,3.1741 45.07355,4.77305 20.33279,3.76116 13.30245,-22.65917 26.47105,-28.92057 12.45216,-3.5744 26.1187,-1.03189 38.89568,-0.40304 20.24458,4.94233 42.95571,8.46935 57.66961,24.75909 10.77094,10.36448 12.27874,25.79553 11.85758,39.90351 -0.10069,20.4496 0.69752,41.0189 -1.05701,61.39113 -2.39956,16.59229 -12.91219,32.13988 -28.78622,38.43169 -19.44408,9.58481 -43.02126,13.98053 -63.92761,6.94766 -13.30161,-4.39299 -21.93624,-16.24587 -32.67138,-23.7625 -12.69592,-1.58681 -25.6281,0.18453 -38.4207,-0.81143 -15.83475,-3.36658 -19.19627,14.36297 -32.43468,18.79327 -22.95773,15.67693 -53.23888,9.4355 -76.47297,-2.24056 -15.29718,-7.98201 -27.50314,-23.98736 -25.98873,-41.92271 -0.26518,-24.50501 -0.85901,-49.10551 0.60975,-73.55659 1.03294,-15.05808 11.76826,-26.02705 23.30649,-34.15646 21.9758,-10.68516 46.77134,-15.62008 71.1923,-14.98423 z"
       fill="#e6dcc2"
       id="path4" />
    <path
       d="m 365.96484,199.56641 c 10.66048,0.23771 21.37558,-0.61026 31.99961,0.36654 6.97837,1.44174 14.47786,6.61001 14.59822,14.38989 0.21819,7.14518 -0.31375,14.29706 -0.13028,21.4512 -0.15333,7.40255 0.38363,14.9339 -0.79326,22.24301 -3.19051,3.96961 -6.24459,8.74492 -11.84885,9.51949 -8.43344,2.28916 -17.27634,0.61476 -25.88696,1.20902 -6.42897,-0.0966 -13.11617,0.68827 -19.32027,-1.31163 -7.1713,-2.8319 -9.47384,-10.94163 -9.83918,-17.94774 -0.34517,-9.60411 0.17463,-19.22038 -0.0931,-28.83172 0.019,-6.86935 0.77832,-15.25355 7.50354,-18.96585 4.24971,-2.04015 9.17605,-2.19172 13.8105,-2.12221 z"
       fill="#33322d"
       id="path6" />
    <path
       d="m 206.27441,199.70947 c 11.93037,0.0547 23.88807,-0.47901 35.80157,0.0574 5.79215,0.71119 12.39732,3.39549 13.9403,9.64337 2.21599,7.12385 0.72469,14.69729 1.23246,22.02385 -0.1528,8.08365 0.66916,16.26635 -0.50882,24.28394 -1.54245,8.32882 -10.57857,13.46005 -18.63606,12.57233 -11.19106,-0.22963 -22.44637,0.64245 -33.59468,-0.40792 -7.1645,-1.17981 -13.73398,-7.14332 -14.67795,-14.46556 0.11345,-13.01104 -0.47622,-26.0518 0.0599,-39.05288 0.50404,-8.33349 8.33796,-14.5383 16.38327,-14.65452 z"
       fill="#33322d"
       id="path8" />
  </g>
</svg>
